<svg width="210" height="210" viewBox="0 0 210 210" fill="none" xmlns="http://www.w3.org/2000/svg">
<path d="M168 210H42C19.0312 210 0 190.969 0 168V42C0 19.0313 19.0312 0 42 0H168C190.969 0 210 19.0313 210 42V168C210 190.969 190.969 210 168 210Z" fill="#FF1C44"/>
<path fill-rule="evenodd" clip-rule="evenodd" d="M162.75 82.0312C160.781 95.8125 153.562 106.312 129.281 114.844L157.5 156.844H126L101.719 118.781H85.9687L76.7812 156.844H48.5625L73.5 53.8124H127.969C156.188 53.8124 164.063 69.5625 162.75 82.0312ZM95.8125 69.5625H116.812C128.625 69.5625 132.563 76.1249 131.25 83.9999C129.938 95.8124 122.063 98.4375 108.281 98.4375H87.2812L95.8125 69.5625Z" fill="white"/>
</svg>
